<svg width="242" height="244" viewBox="0 0 242 244" fill="none" xmlns="http://www.w3.org/2000/svg">
  <rect x="1" y="1" width="240" height="242" rx="24" fill="url(#bg)"/>
  <rect x="1" y="1" width="240" height="242" rx="24" stroke="#DFEAE7"/>
  <path d="M0 37H242M0 61H242M0 85H242M0 109H242M0 133H242M0 157H242M0 181H242M0 205H242M0 229H242" stroke="#E8F2EF" stroke-width="1"/>
  <path d="M25 0V244M49 0V244M73 0V244M97 0V244M121 0V244M145 0V244M169 0V244M193 0V244M217 0V244" stroke="#E8F2EF" stroke-width="1"/>
  <path d="M31 59V36C31 30.4772 35.4772 26 41 26H64" stroke="#0BAA82" stroke-width="4" stroke-linecap="round"/>
  <path d="M178 26H201C206.523 26 211 30.4772 211 36V59" stroke="#0BAA82" stroke-width="4" stroke-linecap="round"/>
  <path d="M31 160V183C31 188.523 35.4772 193 41 193H64" stroke="#0BAA82" stroke-width="4" stroke-linecap="round"/>
  <path d="M211 160V183C211 188.523 206.523 193 201 193H178" stroke="#0BAA82" stroke-width="4" stroke-linecap="round"/>
  <path d="M37 243C44 204 76 185 121 185C166 185 198 204 205 243H37Z" fill="url(#body)"/>
  <path d="M100 156H142V195H100V156Z" fill="white"/>
  <path d="M100 156H142V195H100V156Z" stroke="#34434B" stroke-width="3"/>
  <path d="M67 148C57 149 53 164 61 174C64 178 68 180 72 177" fill="white"/>
  <path d="M67 148C57 149 53 164 61 174C64 178 68 180 72 177" stroke="#34434B" stroke-width="3" stroke-linecap="round"/>
  <path d="M175 148C185 149 189 164 181 174C178 178 174 180 170 177" fill="white"/>
  <path d="M175 148C185 149 189 164 181 174C178 178 174 180 170 177" stroke="#34434B" stroke-width="3" stroke-linecap="round"/>
  <path d="M68 152C68 115 90 91 121 91C152 91 174 115 174 152C174 187 151 209 121 209C91 209 68 187 68 152Z" fill="white"/>
  <path d="M68 152C68 115 90 91 121 91C152 91 174 115 174 152C174 187 151 209 121 209C91 209 68 187 68 152Z" stroke="#34434B" stroke-width="3"/>
  <path d="M66 145C61 97 91 68 121 68C158 68 181 91 177 133C176 142 174 149 171 154C162 151 157 140 155 125C137 133 111 132 91 120C78 126 72 138 70 154L66 145Z" fill="#2F3A43"/>
  <defs>
    <linearGradient id="bg" x1="121" y1="0" x2="121" y2="244" gradientUnits="userSpaceOnUse">
      <stop stop-color="#FEFFFF"/>
      <stop offset="1" stop-color="#F9FCFB"/>
    </linearGradient>
    <linearGradient id="body" x1="121" y1="185" x2="121" y2="243" gradientUnits="userSpaceOnUse">
      <stop stop-color="#8FB7A9"/>
      <stop offset="1" stop-color="#DCEDE7"/>
    </linearGradient>
  </defs>
</svg>
